<svg width="24" height="24" viewBox="0 10 24 24" fill="none" xmlns="http://www.w3.org/2000/svg">
<rect x="1.5" y="14.5" width="21" height="17" stroke="black"/>
<path d="M7 18V11C7 10.4477 7.44772 10 8 10H16C16.5523 10 17 10.4477 17 11V18" stroke="black"/>

<path d="M22.5 15.0977C20.8594 15.0977 19.9023 13.7793 19.9023 11.4648C19.9023 9.16992 20.8789 7.83203 22.5 7.83203C24.1211 7.83203 25.0977 9.16992 25.0977 11.4648C25.0977 13.7793 24.1309 15.0977 22.5 15.0977ZM22.5 14.1699C23.457 14.1699 24.0234 13.2324 24.0234 11.4648C24.0234 9.70703 23.4473 8.74023 22.5 8.74023C21.5527 8.74023 20.9766 9.70703 20.9766 11.4648C20.9766 13.2324 21.543 14.1699 22.5 14.1699Z" fill="white"/>
</svg>
