<svg width="24" height="24" viewBox="0 0 24 24" fill="none" xmlns="http://www.w3.org/2000/svg">
<path d="M19.04 5H4.96002C4.70541 5 4.46123 5.10307 4.2812 5.28653C4.10116 5.46999 4.00002 5.71881 4.00002 5.97826V19.0217C3.99888 19.2083 4.05058 19.3912 4.14892 19.5485C4.24726 19.7058 4.38806 19.8309 4.55442 19.9087C4.6816 19.9685 4.81995 19.9997 4.96002 20C5.18543 19.9998 5.40345 19.918 5.57522 19.7693L5.58002 19.7644L8.15121 17.4679C8.20961 17.4178 8.28367 17.3906 8.36001 17.3913H19.04C19.2946 17.3913 19.5388 17.2882 19.7188 17.1048C19.8989 16.9213 20 16.6725 20 16.413V5.97826C20 5.71881 19.8989 5.46999 19.7188 5.28653C19.5388 5.10307 19.2946 5 19.04 5ZM19.36 16.413C19.36 16.4995 19.3263 16.5825 19.2663 16.6436C19.2063 16.7048 19.1249 16.7391 19.04 16.7391H8.36001C8.1317 16.7398 7.91097 16.8227 7.73681 16.9731L5.16402 19.272C5.11729 19.3114 5.06054 19.3365 5.00038 19.3443C4.94022 19.3521 4.87912 19.3423 4.82421 19.316C4.76929 19.2898 4.72283 19.2482 4.69022 19.1961C4.65761 19.144 4.6402 19.0835 4.64002 19.0217V5.97826C4.64002 5.89178 4.67373 5.80884 4.73374 5.74768C4.79375 5.68653 4.87515 5.65217 4.96002 5.65217H19.04C19.1249 5.65217 19.2063 5.68653 19.2663 5.74768C19.3263 5.80884 19.36 5.89178 19.36 5.97826V16.413Z" fill="#999999" stroke="#999999" stroke-width="0.4"/>
</svg>
