<svg width="38" height="21" viewBox="0 0 38 21" fill="none" xmlns="http://www.w3.org/2000/svg">
<rect x="0.537862" y="0.537862" width="36.9243" height="19.9243" fill="white"/>
<rect x="0.537862" y="0.537862" width="36.9243" height="19.9243" stroke="#B1B1B1" stroke-width="1.07572"/>
<path d="M13.9258 14.5H12.9395L9.35547 9.33398H9.29688V14.5H8.22266V7.42969H9.21875L12.8027 12.6055H12.8711V7.42969H13.9258V14.5ZM15.4711 7.42969H19.9047V8.35742H16.5453V10.4961H19.6703V11.4141H16.5453V13.5723H19.9437V14.5H15.4711V7.42969ZM20.7566 7.42969H21.8895L23.2664 12.8984H23.325L24.7605 7.42969H25.8738L27.3094 12.8984H27.368L28.7449 7.42969H29.8777L27.9148 14.5H26.8309L25.3465 9.2168H25.2879L23.8035 14.5H22.7195L20.7566 7.42969Z" fill="#767676"/>
</svg>
