<svg width="20" height="20" viewBox="0 0 20 20" fill="none" xmlns="http://www.w3.org/2000/svg">
<g id="order_option/order_ic_mean">
<path id="Vector" d="M9.16699 12.4998H10.8337V14.1665H9.16699V12.4998ZM9.16699 5.83317H10.8337V10.8332H9.16699V5.83317ZM10.0003 1.6665C5.39199 1.6665 1.66699 5.4165 1.66699 9.99984C1.66699 12.21 2.54497 14.3296 4.10777 15.8924C4.88159 16.6662 5.80025 17.28 6.8113 17.6988C7.82234 18.1176 8.90598 18.3332 10.0003 18.3332C12.2105 18.3332 14.3301 17.4552 15.8929 15.8924C17.4557 14.3296 18.3337 12.21 18.3337 9.99984C18.3337 8.90549 18.1181 7.82185 17.6993 6.81081C17.2805 5.79976 16.6667 4.8811 15.8929 4.10728C15.1191 3.33346 14.2004 2.71963 13.1894 2.30084C12.1783 1.88205 11.0947 1.6665 10.0003 1.6665ZM10.0003 16.6665C8.23221 16.6665 6.53652 15.9641 5.28628 14.7139C4.03604 13.4636 3.33366 11.7679 3.33366 9.99984C3.33366 8.23173 4.03604 6.53603 5.28628 5.28579C6.53652 4.03555 8.23221 3.33317 10.0003 3.33317C11.7684 3.33317 13.4641 4.03555 14.7144 5.28579C15.9646 6.53603 16.667 8.23173 16.667 9.99984C16.667 11.7679 15.9646 13.4636 14.7144 14.7139C13.4641 15.9641 11.7684 16.6665 10.0003 16.6665Z" fill="#999999"/>
</g>
</svg>
