<svg width="18" height="18" viewBox="0 0 18 18" fill="none" xmlns="http://www.w3.org/2000/svg">
<g id="order_option/order_ic_check">
<path id="Vector" d="M12.342 5.5913C12.5005 5.44042 12.7113 5.35701 12.9301 5.35867C13.149 5.36032 13.3586 5.44691 13.5147 5.60017C13.6709 5.75343 13.7614 5.96136 13.7672 6.18009C13.773 6.39883 13.6936 6.61125 13.5457 6.77255L9.05698 12.3863C8.97979 12.4694 8.88663 12.5361 8.78308 12.5825C8.67952 12.6288 8.56768 12.6537 8.45426 12.6558C8.34084 12.6579 8.22816 12.6371 8.12295 12.5947C8.01775 12.5522 7.92219 12.489 7.84198 12.4088L4.86523 9.43205C4.78233 9.3548 4.71584 9.26165 4.66972 9.15815C4.62361 9.05465 4.59881 8.94292 4.59681 8.82963C4.59481 8.71634 4.61565 8.60381 4.65809 8.49875C4.70052 8.39369 4.76369 8.29825 4.84381 8.21813C4.92393 8.13801 5.01937 8.07484 5.12443 8.03241C5.22949 7.98997 5.34202 7.96913 5.45531 7.97113C5.56861 7.97313 5.68033 7.99793 5.78383 8.04404C5.88733 8.09016 5.98048 8.15665 6.05773 8.23955L8.41348 10.5942L12.3206 5.61605C12.3276 5.60738 12.334 5.59912 12.342 5.5913Z" fill="black"/>
</g>
</svg>
