<svg width="42" height="15" viewBox="0 0 42 15" fill="none" xmlns="http://www.w3.org/2000/svg">
<rect width="40" height="14" rx="7" fill="#EA3223"/>
<path d="M4.72266 3.92969H9.15625V4.85742H5.79688V6.99609H8.92188V7.91406H5.79688V10.0723H9.19531V11H4.72266V3.92969ZM13.1625 9.68164H13.2406L15.2035 3.92969H16.3656L13.8168 11H12.5766L10.0375 3.92969H11.1996L13.1625 9.68164ZM17.3641 3.92969H21.7977V4.85742H18.4383V6.99609H21.5633V7.91406H18.4383V10.0723H21.8367V11H17.3641V3.92969ZM28.9191 11H27.9328L24.3488 5.83398H24.2902V11H23.216V3.92969H24.2121L27.7961 9.10547H27.8645V3.92969H28.9191V11ZM30.1129 3.92969H35.5914V4.85742H33.3941V11H32.3199V4.85742H30.1129V3.92969Z" fill="white"/>
</svg>
