<svg width="27" height="27" viewBox="0 0 27 27" fill="none" xmlns="http://www.w3.org/2000/svg">
<path d="M14 23C16.1208 22.9971 18.154 22.1533 19.6536 20.6536C21.1533 19.154 21.9971 17.1208 22 15C22 14.7805 21.9128 14.57 21.7576 14.4148C21.6024 14.2596 21.3919 14.1724 21.1724 14.1724C20.9529 14.1724 20.7424 14.2596 20.5872 14.4148C20.432 14.57 20.3448 14.7805 20.3448 15C20.3448 16.2549 19.9727 17.4816 19.2755 18.525C18.5784 19.5684 17.5874 20.3816 16.4281 20.8619C15.2687 21.3421 13.993 21.4677 12.7622 21.2229C11.5314 20.9781 10.4009 20.3738 9.51353 19.4865C8.62619 18.5991 8.0219 17.4686 7.77709 16.2378C7.53227 15.007 7.65792 13.7313 8.13814 12.5719C8.61837 11.4126 9.4316 10.4216 10.475 9.72447C11.5184 9.02729 12.7451 8.65517 14 8.65517H16.7586C16.9781 8.65517 17.1886 8.56798 17.3438 8.41278C17.499 8.25758 17.5862 8.04708 17.5862 7.82759C17.5862 7.6081 17.499 7.3976 17.3438 7.24239C17.1886 7.08719 16.9781 7 16.7586 7H14C11.8783 7 9.84344 7.84285 8.34315 9.34315C6.84286 10.8434 6 12.8783 6 15C6 17.1217 6.84286 19.1566 8.34315 20.6569C9.84344 22.1571 11.8783 23 14 23Z" fill="black"/>
<path d="M13.8507 12C13.9598 12.0005 14.0678 11.98 14.1685 11.9398C14.2693 11.8996 14.3606 11.8405 14.4372 11.7659L17.7573 8.57387C17.9127 8.42425 18 8.22142 18 8.00995C18 7.79848 17.9127 7.59565 17.7573 7.44602L14.4372 4.25399C14.3613 4.17558 14.2696 4.1127 14.1678 4.06908C14.066 4.02547 13.9561 4.00201 13.8446 4.00012C13.7332 3.99823 13.6225 4.01794 13.5192 4.05808C13.4158 4.09822 13.3219 4.15795 13.2431 4.23373C13.1643 4.30951 13.1022 4.39977 13.0604 4.49914C13.0187 4.59851 12.9982 4.70494 13.0001 4.81209C13.0021 4.91924 13.0265 5.02491 13.0719 5.12279C13.1172 5.22068 13.1826 5.30878 13.2642 5.38184L15.9977 8.00995L13.2642 10.6381C13.1087 10.7877 13.0214 10.9905 13.0214 11.202C13.0214 11.4135 13.1087 11.6163 13.2642 11.7659C13.3408 11.8405 13.4322 11.8996 13.5329 11.9398C13.6336 11.98 13.7417 12.0005 13.8507 12Z" fill="black"/>
</svg>
