<svg width="20" height="20" viewBox="0 0 20 20" fill="none" xmlns="http://www.w3.org/2000/svg">
<path fill-rule="evenodd" clip-rule="evenodd" d="M10.2526 1.47756C10.1863 1.33499 10.0801 1.21424 9.94674 1.12961C9.81337 1.04498 9.65834 1 9.5 1C9.34166 1 9.18663 1.04498 9.05326 1.12961C8.91988 1.21424 8.81375 1.33499 8.74741 1.47756L6.36863 6.5899L0.731655 7.25319C0.574382 7.2716 0.425721 7.33431 0.303266 7.43389C0.180811 7.53347 0.0896882 7.66576 0.0406825 7.81509C-0.00832329 7.96443 -0.0131607 8.12456 0.0267428 8.27654C0.0666463 8.42851 0.14962 8.56597 0.265844 8.67264L4.43493 12.4946L3.32842 18.0179C3.29769 18.1718 3.31206 18.3313 3.36982 18.4774C3.42759 18.6236 3.52634 18.7502 3.6544 18.8425C3.78246 18.9347 3.93447 18.9887 4.09247 18.9979C4.25047 19.0072 4.40785 18.9714 4.546 18.8949L9.5 16.1447L14.454 18.8949C14.5922 18.9718 14.7498 19.0078 14.9081 18.9986C15.0663 18.9894 15.2186 18.9354 15.3468 18.843C15.475 18.7506 15.5739 18.6237 15.6316 18.4773C15.6893 18.3309 15.7035 18.1712 15.6724 18.017L14.5659 12.4954L18.7342 8.67264C18.8504 8.56597 18.9334 8.42851 18.9733 8.27654C19.0132 8.12456 19.0083 7.96443 18.9593 7.81509C18.9103 7.66576 18.8192 7.53347 18.6967 7.43389C18.5743 7.33431 18.4256 7.2716 18.2683 7.25319L12.6305 6.58908L10.2526 1.47756Z" fill="#CCCCCC"/>
</svg>
